<svg display="none" xmlns="http://www.w3.org/2000/svg">

<symbol id="stopwatch" viewBox="0 0 508.629 508.629">
<path d="m451.73 155.367 10.401-12.099 10.136 8.715c1.365 1.174 3.102 1.813 4.89 1.813.188 0 .376-.007.564-.021 1.983-.15 3.826-1.081 5.123-2.59l16.103-18.73c2.7-3.141 2.343-7.876-.798-10.576l-55.383-47.614c-1.509-1.297-3.47-1.949-5.454-1.792-1.983.149-3.826 1.081-5.123 2.589l-16.103 18.73c-2.7 3.141-2.343 7.876.798 10.576l10.136 8.715-11.197 13.024c-22.936-14.65-49.037-24.764-77.03-29.059v-22.662h25.83c12.056 0 21.863-9.808 21.863-21.864v-17.45c0-12.056-9.808-21.864-21.863-21.864h-112.683c-12.056 0-21.864 9.808-21.864 21.864v17.45c0 12.056 9.808 21.864 21.864 21.864h25.831v22.662c-28.545 4.38-55.119 14.816-78.38 29.936l-11.951-13.901 10.137-8.715c1.508-1.297 2.439-3.14 2.589-5.123.149-1.983-.495-3.945-1.792-5.454l-16.103-18.73c-2.701-3.14-7.435-3.498-10.577-.797l-55.382 47.614c-1.508 1.297-2.439 3.14-2.589 5.123-.149 1.983.495 3.945 1.792 5.454l16.103 18.73c1.483 1.725 3.581 2.61 5.69 2.61 1.731 0 3.471-.596 4.886-1.813l10.136-8.714 11.387 13.244c-9.854 10.277-18.623 21.602-26.128 33.784-.253-.026-.51-.039-.771-.039h-47.363c-4.142 0-7.5 3.358-7.5 7.5s3.358 7.5 7.5 7.5h39.779c-3.949 7.84-7.397 15.972-10.304 24.356h-75.779c-4.142 0-7.5 3.358-7.5 7.5s3.358 7.5 7.5 7.5h71.226c-2.708 10.396-4.588 21.121-5.591 32.097h-101.286c-4.142 0-7.5 3.358-7.5 7.5s3.358 7.5 7.5 7.5h100.479c-.019 1.121-.043 2.24-.043 3.366 0 9.755.715 19.345 2.069 28.731h-73.854c-4.142 0-7.5 3.358-7.5 7.5s3.358 7.5 7.5 7.5h76.606c1.86 8.324 4.235 16.455 7.099 24.355h-37.401c-4.142 0-7.5 3.358-7.5 7.5s3.358 7.5 7.5 7.5h43.54c31.63 69.119 101.439 117.26 182.288 117.26 42.227 0 82.614-12.984 116.796-37.548 3.363-2.417 4.131-7.104 1.714-10.467-2.42-3.365-7.105-4.13-10.468-1.713-31.615 22.72-68.976 34.729-108.042 34.729-102.201 0-185.347-83.146-185.347-185.346 0-102.201 83.146-185.347 185.347-185.347 49.473 0 94.481 19.485 127.754 51.183.068.072.144.138.215.208 35.335 33.77 57.377 81.337 57.377 133.956 0 49.568-19.32 96.154-54.402 131.174-2.932 2.927-2.936 7.675-.009 10.607 2.926 2.931 7.675 2.936 10.606.009 37.921-37.855 58.805-88.21 58.805-141.791 0-54.288-21.713-103.591-56.899-139.709zm-13.055-64.839 44.009 37.835-6.324 7.355-44.009-37.835zm-.279 32.334 12.361 10.627-9.9 11.516c-4.07-3.6-8.28-7.046-12.634-10.311zm-163.282-63.476v-31.178h12.112v31.178zm27.112-31.178h12.112v31.178h-12.112zm27.112 31.178v-31.178h12.113v31.178zm42.15-24.314v17.45c0 3.785-3.079 6.864-6.863 6.864h-8.173v-31.178h8.173c3.784 0 6.863 3.079 6.863 6.864zm-126.411 17.45v-17.45c0-3.785 3.079-6.864 6.864-6.864h8.173v31.178h-8.173c-3.785 0-6.864-3.079-6.864-6.864zm-106.975 83.197-6.324-7.355 44.008-37.835 6.324 7.355-10.135 8.714s-.001.001-.002.001l-23.735 20.406c-.001.001-.001.001-.002.002zm25.827-2.423 12.136-10.434 11.009 12.805c-4.327 3.298-8.518 6.765-12.559 10.397l-10.811-12.574zm128.842-37.972v-20.938h31.023v20.939c-5.12-.394-10.293-.596-15.512-.596s-10.391.202-15.511.595z"/><path d="m245.469 158.435c-1.919-3.671-6.451-5.091-10.121-3.173-45.598 23.834-76.784 68.484-83.424 119.438-11.235 86.216 49.767 165.499 135.983 176.733 6.888.898 13.718 1.334 20.486 1.333 77.949-.007 145.909-57.988 156.247-137.316 5.442-41.765-5.705-83.149-31.39-116.53-25.684-33.38-62.829-54.761-104.595-60.204-20.376-2.656-40.697-1.375-60.403 3.803-4.006 1.053-6.4 5.154-5.348 9.16 1.053 4.006 5.156 6.398 9.16 5.348 9.438-2.48 19.037-3.961 28.717-4.458v19.705c0 4.142 3.357 7.5 7.5 7.5s7.5-3.358 7.5-7.5v-19.687c3.641.197 7.287.527 10.937 1.002 29.208 3.806 55.915 16.234 77.272 35.625l-13.583 13.582c-2.93 2.929-2.93 7.677-.001 10.606 1.465 1.465 3.384 2.197 5.304 2.197 1.919 0 3.839-.732 5.303-2.197l13.544-13.544c2.356 2.638 4.627 5.375 6.806 8.207 17.933 23.307 28.025 50.927 29.441 79.689h-18.604c-4.143 0-7.5 3.358-7.5 7.5s3.357 7.5 7.5 7.5h18.563c-.198 3.578-.529 7.165-.997 10.755-3.864 29.649-16.627 55.997-35.241 76.719l-12.849-12.849c-2.93-2.929-7.678-2.929-10.607 0s-2.929 7.678 0 10.606l12.863 12.863c-23.623 21.33-54.212 34.716-87.214 36.658v-18.335c0-4.142-3.357-7.5-7.5-7.5s-7.5 3.358-7.5 7.5v18.427c-3.937-.184-7.896-.523-11.872-1.042-29.323-3.821-55.421-16.343-76.038-34.625l13.284-13.284c2.929-2.929 2.929-7.677 0-10.606s-7.678-2.929-10.606 0l-13.36 13.359c-21.65-23.672-35.268-54.463-37.267-87.711h19.441c4.142 0 7.5-3.358 7.5-7.5s-3.358-7.5-7.5-7.5h-19.551c.182-3.996.523-8.016 1.049-12.053 3.755-28.811 16.184-55.396 35.048-76.55l13.978 13.977c1.464 1.465 3.384 2.197 5.303 2.197s3.839-.732 5.303-2.197c2.929-2.929 2.929-7.678 0-10.606l-14.016-14.016c8.934-8.119 18.944-15.171 29.882-20.888 3.671-1.916 5.092-6.448 3.173-10.118z"/><path d="m308.283 226.278c-4.143 0-7.5 3.358-7.5 7.5v44.55c-6.395 2.876-10.866 9.293-10.866 16.748 0 10.127 8.239 18.366 18.366 18.366 2.776 0 5.4-.637 7.762-1.745l50.037 50.037c1.465 1.465 3.384 2.197 5.304 2.197 1.919 0 3.839-.732 5.304-2.197 2.929-2.929 2.929-7.678 0-10.606l-50.812-50.813c.496-1.662.771-3.418.771-5.239 0-7.454-4.471-13.872-10.865-16.747v-44.55c-.001-4.143-3.359-7.501-7.501-7.501zm-3.366 68.797c0-1.856 1.51-3.366 3.366-3.366 1.855 0 3.365 1.51 3.365 3.366s-1.51 3.366-3.365 3.366c-1.857 0-3.366-1.51-3.366-3.366z"/>
</symbol>
 
 <symbol id="rocket" viewBox="0 0 512.001 512.001">
		<path d="M268.662,243.351c-3.91-3.91-10.24-3.91-14.15,0c-3.9,3.9-3.9,10.23,0,14.14c3.91,3.9,10.24,3.9,14.15,0
			C272.562,253.581,272.562,247.251,268.662,243.351z"/>
		<path d="M395.933,116.07c-19.54-19.539-51.172-19.54-70.713,0c-19.489,19.489-19.49,51.209,0.003,70.714
			c19.496,19.484,51.216,19.492,70.71-0.002C415.471,167.244,415.475,135.611,395.933,116.07z M381.791,172.639
			c-11.693,11.694-30.727,11.694-42.426,0.002c-11.695-11.702-11.696-30.736-0.002-42.429c11.723-11.723,30.703-11.725,42.428,0
			C393.514,141.934,393.516,160.915,381.791,172.639z"/>
		<path d="M509.07,2.929c-1.964-1.963-4.644-3.027-7.43-2.922c-2.261,0.081-56.096,2.245-120.091,24.864
			c-51.28,18.106-94.023,44.029-127.042,77.049c-7.399,7.399-14.599,15.245-21.488,23.396c-32.648-19.218-58.81-13.192-75.349-4.341
			c-38.081,20.38-61.652,75.716-61.652,115.296c0.003,4.044,2.44,7.691,6.176,9.238c1.237,0.513,2.537,0.762,3.825,0.762
			c2.603,0,5.16-1.017,7.073-2.929c20.083-20.083,44.854-18.827,52.946-17.763l3.502,3.502c-6.892,16.4-12.444,32.708-16.516,48.569
			c-1.47,5.74-0.974,11.814,1.211,17.37c-9.628,4.437-18.917,10.952-27.005,19.04c-25.741,25.742-30.968,88.476-31.178,91.134
			c-0.23,2.917,0.828,5.789,2.897,7.858c1.883,1.882,4.43,2.929,7.07,2.929c0.262,0,0.525-0.01,0.788-0.031
			c2.658-0.209,65.394-5.436,91.135-31.177c8.085-8.085,14.599-17.373,19.036-26.999c5.882,2.313,11.936,2.598,17.38,1.203
			c15.854-4.071,32.16-9.621,48.562-16.514l3.502,3.502c1.063,8.093,2.319,32.864-17.763,52.945
			c-2.859,2.86-3.715,7.161-2.167,10.897c1.547,3.737,5.193,6.173,9.238,6.173c39.58,0,94.915-23.571,115.295-61.652
			c8.851-16.537,14.877-42.699-4.341-75.348c8.147-6.886,15.994-14.086,23.396-21.488c33.02-33.02,58.942-75.763,77.048-127.039
			c22.62-63.998,24.783-117.834,24.864-120.094C512.092,7.584,511.033,4.893,509.07,2.929z M118.376,214.762
			c6.212-30.063,24.255-63.052,48.735-76.154c16.359-8.754,34.24-7.896,53.252,2.511c-16.197,21.302-30.278,44.252-42.015,68.487
			c-0.149-0.092-1.949-2.355-5.293-3.109C171.68,206.186,145.221,200.495,118.376,214.762z M183.8,370.63
			c-13.75,13.75-46.005,21.002-66.392,23.963c2.962-20.388,10.215-52.642,23.964-66.391c7.7-7.7,16.628-13.538,25.602-16.826
			l33.652,33.652C197.338,354.002,191.501,362.93,183.8,370.63z M229.39,339.603c-2.894,0.741-6.246-0.347-8.738-2.835
			c-12.937-12.937-17.998-17.998-19.586-19.585c-2.912-2.912-10.053-10.053-25.826-25.827c-2.494-2.499-3.582-5.85-2.843-8.739
			c3.203-12.474,7.392-25.272,12.486-38.193l82.695,82.695C254.655,332.214,241.859,336.402,229.39,339.603z M373.394,344.891
			c-13.102,24.479-46.09,42.523-76.152,48.734c9.585-18.037,11.698-40.998,8.196-54.921c-0.813-3.234-2.923-4.86-3.041-5.051
			c24.233-11.737,47.182-25.818,68.486-42.015C381.29,310.652,382.147,328.535,373.394,344.891z M395.94,243.35
			c-9.011,9.01-18.714,17.715-28.84,25.872c-24.342,19.6-51.134,36.202-79.718,49.418l-94.02-94.018
			c13.216-28.586,29.818-55.378,49.416-79.717c8.164-10.133,16.868-19.837,25.875-28.843
			c29.625-29.626,67.859-53.204,113.671-70.176l83.792,83.792C449.146,175.489,425.568,213.723,395.94,243.35z M473.311,108.587
			l-69.896-69.896c38.081-11.828,71.21-16.257,87.746-17.849C489.568,37.381,485.138,70.51,473.311,108.587z"/>
		<path d="M240.371,413.049c-3.907-3.905-10.239-3.903-14.143,0.002l-28.28,28.29c-3.904,3.906-3.903,10.238,0.002,14.142
			c3.907,3.904,10.239,3.904,14.143-0.002l28.28-28.29C244.277,423.285,244.276,416.953,240.371,413.049z"/>
		<path d="M98.954,271.631c-3.904-3.906-10.235-3.906-14.142-0.002l-28.29,28.28c-3.906,3.904-3.907,10.236-0.003,14.142
			c3.903,3.904,10.234,3.908,14.142,0.002l28.29-28.28C102.857,281.869,102.858,275.537,98.954,271.631z"/>
		<path d="M169.663,427.2c-3.903-3.905-10.236-3.905-14.142-0.001l-67.74,67.73c-3.906,3.905-3.906,10.237-0.001,14.142
			c3.903,3.905,10.236,3.907,14.142,0.001l67.74-67.73C173.568,437.437,173.568,431.105,169.663,427.2z"/>
		<path d="M89.663,427.2c-3.904-3.905-10.237-3.905-14.142-0.001l-67.74,67.73c-3.906,3.905-3.906,10.237-0.001,14.142
			c3.903,3.905,10.236,3.907,14.142,0.001l67.74-67.73C93.568,437.437,93.568,431.105,89.663,427.2z"/>
		<path d="M84.802,342.338c-3.904-3.904-10.237-3.904-14.142,0.001l-67.73,67.74c-3.905,3.906-3.905,10.237,0.001,14.143
			c3.905,3.905,10.237,3.905,14.142-0.001l67.73-67.74C88.708,352.575,88.708,346.244,84.802,342.338z"/>
		<path d="M311.083,200.919c-3.906-3.905-10.236-3.905-14.143,0l-14.14,14.14c-3.905,3.905-3.905,10.237,0,14.143
			c3.906,3.905,10.237,3.905,14.143,0l14.14-14.14C314.988,211.157,314.988,204.825,311.083,200.919z"/>
</symbol>
 
 <symbol id="mobile" viewBox="0 0 482.229 482.229">
	<path d="M166.316,75.172l257.166-1.092V248.26l-141.64,0.6v31.338h142.732
		c17.018,0,30.854-13.844,30.854-30.856V74.08c0-17.011-13.837-30.856-30.854-30.856H166.316c-17.018,0-30.855,13.845-30.855,30.856
		v54.854h31.198L166.316,75.172z"/>
	<path d="M472.152,287.593h-190.31v36.493h173.977c14.585,0,26.41-11.824,26.41-26.417
		C482.229,292.108,477.721,287.593,472.152,287.593z"/>
	<path d="M224.672,152.894H112.484c-18.313,0-33.21,14.897-33.21,33.211v46.173h18.203
		c4.851,0,9.438,0.999,13.743,2.581v-48.754c0-0.694,0.56-1.264,1.264-1.264h112.188c0.703,0,1.264,0.569,1.264,1.264v155.717
		h-88.492v45.159h87.229c18.314,0,33.211-14.897,33.211-33.211V186.105C257.883,167.792,242.986,152.894,224.672,152.894z
		 M168.578,372.382c-4.039,0-7.456-2.379-9.188-5.757c-0.733-1.426-1.248-2.979-1.248-4.686c0-5.765,4.681-10.435,10.436-10.435
		c5.757,0,10.436,4.67,10.436,10.435c0,1.708-0.514,3.26-1.247,4.686C176.035,370.003,172.618,372.382,168.578,372.382z"/>
	<path d="M97.478,252.245H19.998C8.969,252.245,0,261.222,0,272.25v146.756
		c0,11.03,8.969,19.999,19.998,19.999h77.479c11.029,0,19.999-8.969,19.999-19.999V272.25
		C117.477,261.222,108.507,252.245,97.478,252.245z M23.96,276.205h69.556v126.859H23.96V276.205z M58.745,429.287
		c-2.199,0-4.164-0.89-5.663-2.262c-1.699-1.544-2.792-3.712-2.792-6.185c0-4.665,3.776-8.439,8.455-8.439
		c4.648,0,8.425,3.774,8.425,8.439c0,2.473-1.093,4.64-2.778,6.185C62.895,428.397,60.93,429.287,58.745,429.287z"/>

</symbol>
 
</svg>